# xmcd
#
# Track frame offsets: 
#        150
#        29995
#        51198
#        78578
#        91351
#        112277
#        136245
#        152290
#        166746
#        208088
#        224188
#        265275
#
# Disc length: 3786 seconds
#
# Revision: 0
# Processed by: cddbd v1.5.2PL0 Copyright (c) Steve Scherf et al.
# Submitted via: ExactAudioCopy v0.99pb5
#
DISCID=b40ec80c
DTITLE=Eric Johnson - Live At The House Of Blues
DYEAR=1997
DGENRE=Blues
TTITLE0=Zenland
TTITLE1=Trademark
TTITLE2=Nothing Can Keep Me From You
TTITLE3=Toil To Toil Five
TTITLE4=Rain
TTITLE5=The Boogie King
TTITLE6=S.R.V.
TTITLE7=Righteous
TTITLE8=Shape I'm In
TTITLE9=Elevator Sky
TTITLE10=Cliffs Of Dover
TTITLE11=World Of Trouble
EXTD=
EXTT0=
EXTT1=
EXTT2=
EXTT3=
EXTT4=
EXTT5=
EXTT6=
EXTT7=
EXTT8=
EXTT9=
EXTT10=
EXTT11=
PLAYORDER=
